<mxfile host="app.diagrams.net" modified="2023-03-29T15:09:46.278Z" agent="Mozilla/5.0 (Windows NT 10.0; Win64; x64) AppleWebKit/537.36 (KHTML, like Gecko) Chrome/111.0.0.0 Safari/537.36" etag="yWoxzPbNnPBdfsOME1W2" version="21.1.2" type="github">
  <diagram name="第 1 页" id="Om5pmr0O2Ty15F2-4jWx">
    <mxGraphModel dx="1687" dy="2068" grid="1" gridSize="10" guides="1" tooltips="1" connect="1" arrows="1" fold="1" page="1" pageScale="1" pageWidth="827" pageHeight="1169" math="0" shadow="0">
      <root>
        <mxCell id="0" />
        <mxCell id="1" parent="0" />
        <mxCell id="ucc212wSf8NVRdJLmzGU-25" value="&lt;font style=&quot;font-size: 24px;&quot;&gt;node1&lt;/font&gt;" style="whiteSpace=wrap;html=1;aspect=fixed;align=right;" vertex="1" parent="1">
          <mxGeometry x="730" y="-48" width="300" height="300" as="geometry" />
        </mxCell>
        <mxCell id="ucc212wSf8NVRdJLmzGU-3" value="&lt;font style=&quot;font-size: 14px;&quot;&gt;&lt;b&gt;master&lt;/b&gt;&lt;/font&gt;" style="whiteSpace=wrap;html=1;aspect=fixed;align=left;" vertex="1" parent="1">
          <mxGeometry x="50" y="50" width="370" height="370" as="geometry" />
        </mxCell>
        <mxCell id="ucc212wSf8NVRdJLmzGU-5" value="&lt;font size=&quot;3&quot;&gt;api-server&lt;/font&gt;" style="ellipse;whiteSpace=wrap;html=1;" vertex="1" parent="1">
          <mxGeometry x="280" y="152" width="120" height="80" as="geometry" />
        </mxCell>
        <mxCell id="ucc212wSf8NVRdJLmzGU-7" value="&lt;font size=&quot;3&quot;&gt;api-server&lt;/font&gt;" style="ellipse;whiteSpace=wrap;html=1;" vertex="1" parent="1">
          <mxGeometry x="140" y="162" width="120" height="80" as="geometry" />
        </mxCell>
        <mxCell id="ucc212wSf8NVRdJLmzGU-8" value="&lt;font size=&quot;3&quot;&gt;api-server&lt;/font&gt;" style="ellipse;whiteSpace=wrap;html=1;" vertex="1" parent="1">
          <mxGeometry x="130" y="314" width="120" height="80" as="geometry" />
        </mxCell>
        <mxCell id="ucc212wSf8NVRdJLmzGU-15" value="&lt;font style=&quot;font-size: 18px;&quot;&gt;etcd&lt;/font&gt;" style="shape=cylinder3;whiteSpace=wrap;html=1;boundedLbl=1;backgroundOutline=1;size=15;" vertex="1" parent="1">
          <mxGeometry x="90" y="62" width="60" height="80" as="geometry" />
        </mxCell>
        <mxCell id="ucc212wSf8NVRdJLmzGU-17" value="&lt;font style=&quot;font-size: 18px;&quot;&gt;pod2&lt;/font&gt;" style="ellipse;whiteSpace=wrap;html=1;align=right;" vertex="1" parent="1">
          <mxGeometry x="740" y="-38" width="250" height="130" as="geometry" />
        </mxCell>
        <mxCell id="ucc212wSf8NVRdJLmzGU-18" value="container1" style="shape=hexagon;perimeter=hexagonPerimeter2;whiteSpace=wrap;html=1;fixedSize=1;" vertex="1" parent="1">
          <mxGeometry x="780" y="-18" width="100" height="40" as="geometry" />
        </mxCell>
        <mxCell id="ucc212wSf8NVRdJLmzGU-20" value="container2" style="shape=hexagon;perimeter=hexagonPerimeter2;whiteSpace=wrap;html=1;fixedSize=1;" vertex="1" parent="1">
          <mxGeometry x="780" y="26" width="100" height="40" as="geometry" />
        </mxCell>
        <mxCell id="ucc212wSf8NVRdJLmzGU-21" value="&lt;font style=&quot;font-size: 18px;&quot;&gt;pod1&lt;/font&gt;" style="ellipse;whiteSpace=wrap;html=1;align=right;" vertex="1" parent="1">
          <mxGeometry x="740" y="102" width="250" height="130" as="geometry" />
        </mxCell>
        <mxCell id="ucc212wSf8NVRdJLmzGU-22" value="container3" style="shape=hexagon;perimeter=hexagonPerimeter2;whiteSpace=wrap;html=1;fixedSize=1;" vertex="1" parent="1">
          <mxGeometry x="780" y="122" width="100" height="40" as="geometry" />
        </mxCell>
        <mxCell id="ucc212wSf8NVRdJLmzGU-23" value="container4" style="shape=hexagon;perimeter=hexagonPerimeter2;whiteSpace=wrap;html=1;fixedSize=1;" vertex="1" parent="1">
          <mxGeometry x="780" y="166" width="100" height="40" as="geometry" />
        </mxCell>
        <mxCell id="ucc212wSf8NVRdJLmzGU-26" value="&lt;font style=&quot;font-size: 24px;&quot;&gt;node2&lt;/font&gt;" style="whiteSpace=wrap;html=1;aspect=fixed;align=right;" vertex="1" parent="1">
          <mxGeometry x="730" y="284" width="300" height="300" as="geometry" />
        </mxCell>
        <mxCell id="ucc212wSf8NVRdJLmzGU-27" value="&lt;font style=&quot;font-size: 18px;&quot;&gt;pod2&lt;/font&gt;" style="ellipse;whiteSpace=wrap;html=1;align=right;" vertex="1" parent="1">
          <mxGeometry x="740" y="294" width="250" height="130" as="geometry" />
        </mxCell>
        <mxCell id="ucc212wSf8NVRdJLmzGU-28" value="container1" style="shape=hexagon;perimeter=hexagonPerimeter2;whiteSpace=wrap;html=1;fixedSize=1;" vertex="1" parent="1">
          <mxGeometry x="780" y="314" width="100" height="40" as="geometry" />
        </mxCell>
        <mxCell id="ucc212wSf8NVRdJLmzGU-29" value="container2" style="shape=hexagon;perimeter=hexagonPerimeter2;whiteSpace=wrap;html=1;fixedSize=1;" vertex="1" parent="1">
          <mxGeometry x="780" y="358" width="100" height="40" as="geometry" />
        </mxCell>
        <mxCell id="ucc212wSf8NVRdJLmzGU-30" value="&lt;font style=&quot;font-size: 18px;&quot;&gt;pod1&lt;/font&gt;" style="ellipse;whiteSpace=wrap;html=1;align=right;" vertex="1" parent="1">
          <mxGeometry x="740" y="434" width="250" height="130" as="geometry" />
        </mxCell>
        <mxCell id="ucc212wSf8NVRdJLmzGU-31" value="container3" style="shape=hexagon;perimeter=hexagonPerimeter2;whiteSpace=wrap;html=1;fixedSize=1;" vertex="1" parent="1">
          <mxGeometry x="780" y="454" width="100" height="40" as="geometry" />
        </mxCell>
        <mxCell id="ucc212wSf8NVRdJLmzGU-32" value="container4" style="shape=hexagon;perimeter=hexagonPerimeter2;whiteSpace=wrap;html=1;fixedSize=1;" vertex="1" parent="1">
          <mxGeometry x="780" y="498" width="100" height="40" as="geometry" />
        </mxCell>
      </root>
    </mxGraphModel>
  </diagram>
</mxfile>
